<svg xmlns="http://www.w3.org/2000/svg" viewBox="0 0 720 520" role="img" aria-label="Abstract security analytics illustration">
  <defs>
    <linearGradient id="g" x1="0" x2="1" y1="0" y2="1"><stop stop-color="#38bdf8"/><stop offset="1" stop-color="#0ea5e9"/></linearGradient>
    <filter id="s"><feDropShadow dx="0" dy="18" stdDeviation="18" flood-color="#001a2d" flood-opacity=".35"/></filter>
  </defs>
  <rect width="720" height="520" rx="36" fill="#0b1728"/>
  <circle cx="575" cy="85" r="110" fill="#12385a" opacity=".45"/>
  <circle cx="140" cy="420" r="150" fill="#0f4067" opacity=".35"/>
  <g filter="url(#s)">
    <rect x="88" y="86" width="544" height="348" rx="30" fill="#111f34" stroke="#365a7c"/>
    <rect x="122" y="122" width="212" height="86" rx="18" fill="#172a45"/>
    <rect x="122" y="232" width="476" height="34" rx="17" fill="#172a45"/>
    <rect x="122" y="288" width="390" height="34" rx="17" fill="#172a45"/>
    <rect x="122" y="344" width="452" height="34" rx="17" fill="#172a45"/>
    <path d="M455 150l58 28 58-28v62c0 67-58 106-58 106s-58-39-58-106v-62z" fill="url(#g)"/>
    <path d="M493 221l18 18 42-55" fill="none" stroke="#062033" stroke-width="16" stroke-linecap="round" stroke-linejoin="round"/>
  </g>
  <g fill="#38bdf8" opacity=".9">
    <circle cx="150" cy="155" r="10"/><circle cx="182" cy="155" r="10"/><circle cx="214" cy="155" r="10"/>
  </g>
</svg>
